HIERARCHY
ROOT Hips
{
  OFFSET 0 89.5177 0.535
  CHANNELS 6 Xposition Yposition Zposition Zrotation Xrotation Yrotation
  JOINT Spine
  {
    OFFSET 12.0259 -0.162855 1.69034e-005
    CHANNELS 3 Zrotation Xrotation Yrotation
    JOINT Spine1
    {
      OFFSET 15.3169 -0.0121922 0
      CHANNELS 3 Zrotation Xrotation Yrotation
      JOINT Spine2
      {
        OFFSET 15.3176 -0.0121908 0
        CHANNELS 3 Zrotation Xrotation Yrotation
        JOINT Neck
        {
          OFFSET 19.9142 1.56338 0
          CHANNELS 3 Zrotation Xrotation Yrotation
          JOINT Head
          {
            OFFSET 6.92651 0 0
            CHANNELS 3 Zrotation Xrotation Yrotation
            End Site
            {
              OFFSET 20.7666 0 0
            }
          }
          JOINT LeftShoulder
          {
            OFFSET -6.20654 0.708824 7.28219
            CHANNELS 3 Zrotation Xrotation Yrotation
            JOINT LeftArm
            {
              OFFSET 14.108 0 -1.52588e-005
              CHANNELS 3 Zrotation Xrotation Yrotation
              JOINT LeftForeArm
              {
                OFFSET 28.5802 0 0
                CHANNELS 3 Zrotation Xrotation Yrotation
                JOINT LeftHand
                {
                  OFFSET 27.092 0 0
                  CHANNELS 3 Zrotation Xrotation Yrotation
                  End Site
                  {
                    OFFSET 9.55928 -0.186424 0.145352
                  }
                }
              }
            }
          }
          JOINT RightShoulder
          {
            OFFSET -6.20654 0.708866 -7.28218
            CHANNELS 3 Zrotation Xrotation Yrotation
            JOINT RightArm
            {
              OFFSET 14.108 0 1.52588e-005
              CHANNELS 3 Zrotation Xrotation Yrotation
              JOINT RightForeArm
              {
                OFFSET 28.5802 0 0
                CHANNELS 3 Zrotation Xrotation Yrotation
                JOINT RightHand
                {
                  OFFSET 27.092 0 0
                  CHANNELS 3 Zrotation Xrotation Yrotation
                  End Site
                  {
                    OFFSET 9.55929 -0.186417 -0.145354
                  }
                }
              }
            }
          }
        }
      }
    }
  }
  JOINT LeftUpLeg
  {
    OFFSET 0.005 -0.535 8.837
    CHANNELS 3 Zrotation Xrotation Yrotation
    JOINT LeftLeg
    {
      OFFSET 39.9035 0 0
      CHANNELS 3 Zrotation Xrotation Yrotation
      JOINT LeftFoot
      {
        OFFSET 39.6689 0 0
        CHANNELS 3 Zrotation Xrotation Yrotation
        JOINT LeftToe
        {
          OFFSET 10.1624 13.6296 0
          CHANNELS 3 Zrotation Xrotation Yrotation
          End Site
          {
            OFFSET 8.38147 0 0
          }
        }
      }
    }
  }
  JOINT RightUpLeg
  {
    OFFSET 0.005 -0.535 -8.837
    CHANNELS 3 Zrotation Xrotation Yrotation
    JOINT RightLeg
    {
      OFFSET 39.9035 0 0
      CHANNELS 3 Zrotation Xrotation Yrotation
      JOINT RightFoot
      {
        OFFSET 39.6689 0 0
        CHANNELS 3 Zrotation Xrotation Yrotation
        JOINT RightToe
        {
          OFFSET 10.1624 13.6296 0
          CHANNELS 3 Zrotation Xrotation Yrotation
          End Site
          {
            OFFSET 8.38147 0 0
          }
        }
      }
    }
  }
}
MOTION
Frames:	14
Frame Time:	0.0333333
50.0181 85.0306 13.236 -104.586 5.19541 173.378 -0.776658 -1.49734 0.118015 -1.55102 -2.99567 0.215999 -1.55102 -2.99567 0.21599 -8.30748e-012 -9.0191e-006 -5.27751e-005 0.21631 6.14234 -7.66255 179.168 4.12508 -78.5818 -31.7551 6.96097 47.7233 -74.9303 -3.18055e-015 6.36111e-015 -26.7743 -44.7049 -17.0609 -177.397 8.09024 72.0968 33.2498 37.3215 -77.1045 -121.179 -6.36111e-015 9.54166e-015 -88.3503 23.504 92.284 4.87881 -15.1947 174.998 -12.6094 -6.36111e-015 7.95139e-016 20.1433 2.29325 -3.94865 90 -3.18055e-015 -0 -48.2785 -5.62906 179.254 -28.0505 0 -7.95139e-016 4.02054 -6.0597 12.0053 90 1.59028e-015 -3.97569e-016 
54.2507 84.0453 14.3779 -104.864 2.16839 172.734 -0.707157 -1.70103 0.104587 -1.41213 -3.40275 0.188456 -1.41213 -3.40275 0.188447 -8.3051e-012 -9.0191e-006 -5.27751e-005 -1.03166 4.88604 -7.54202 179.145 4.51294 -79.263 -30.6382 3.97151 46.8822 -74.8471 0 -9.54166e-015 -29.098 -44.681 -19.454 -177.535 8.45978 73.6903 36.3819 43.0081 -79.9661 -123.06 0 -1.59028e-015 -87.0815 19.2379 85.6898 7.59703 -14.5947 176.582 -13.7002 3.18055e-015 -0 20.9095 3.35525 -5.90942 90 -3.18055e-015 6.36111e-015 -43.9689 -4.48668 179.439 -14.7384 3.97569e-016 -0 8.30192 -6.33737 12.6095 90 -7.95139e-016 1.59028e-015 
58.6506 83.4797 15.356 -105.897 -0.692042 171.623 -0.813956 -1.91303 0.160145 -1.62391 -3.82767 0.293491 -1.62391 -3.82767 0.293482 -8.30609e-012 -9.0191e-006 -5.27751e-005 -2.02527 3.52894 -7.18715 179.082 5.027 -79.6409 -28.5655 1.82958 46.7671 -74.9824 -6.36111e-015 -0 -31.4265 -44.7213 -21.8944 -177.626 8.84099 74.904 39.7493 47.4609 -82.9894 -124.305 -3.18055e-015 2.38542e-015 -86.2915 15.6296 79.0779 8.67203 -14.0551 178.817 -16.2246 -6.36111e-015 7.95139e-016 20.9511 5.39306 -7.85559 90 0 -0 -46.9613 -7.93368 179.624 -20.9298 7.95139e-016 -1.59028e-015 13.0194 -8.32978 11.1219 90 -1.59028e-015 -1.59028e-015 
63.5469 83.4111 16.3539 -107.013 -2.09113 169.459 -0.96244 -1.93365 0.468127 -1.91066 -3.87438 0.904626 -1.91066 -3.87438 0.904616 -8.31046e-012 -9.0191e-006 -5.27751e-005 -3.13332 2.48656 -7.27243 179.011 5.27419 -79.3616 -25.3012 0.566056 47.4021 -75.2497 0 -6.36111e-015 -34.1736 -44.3497 -24.4994 -177.715 9.03097 75.7353 42.372 50.8064 -85.623 -125.315 6.36111e-015 -2.38542e-015 -86.0961 12.4921 73.2375 8.64179 -12.4775 -178.184 -20.4137 0 -0 18.9075 7.54962 -8.92462 90 0 6.36111e-015 -46.4516 -6.1699 -177.884 -22.7923 -3.97569e-016 7.95139e-016 5.30892 -6.92736 7.96292 90 -1.19271e-015 -3.18055e-015 
68.4705 83.6847 17.1234 -108.147 -1.60585 167.886 -1.21355 -1.74621 0.727118 -2.4065 -3.50683 1.41823 -2.40651 -3.50683 1.41822 -8.30132e-012 -9.0191e-006 -5.27751e-005 -3.98977 2.42676 -7.90539 179.036 4.70027 -78.3912 -21.2637 0.00341656 48.6878 -75.0854 0 -0 -37.604 -44.2648 -28.1026 -177.951 8.45067 76.3204 44.7291 52.9997 -88.3333 -126.303 3.18055e-015 2.38542e-015 -86.3443 10.4602 70.364 4.68915 -10.0046 -176.706 -29.7928 0 -0 13.0944 9.45077 -10.1717 90 3.18055e-015 3.18055e-015 -46.5398 -5.94011 -176.237 -26.3863 -3.97569e-016 -1.59028e-015 4.24466 -6.58806 11.2406 90 -1.59028e-015 -0 
73.5435 84.1618 17.9032 -108.313 -1.49774 166.189 -1.26526 -1.57472 0.993556 -2.50444 -3.17031 1.95338 -2.50444 -3.17031 1.95337 -8.30838e-012 -9.0191e-006 -5.27751e-005 -4.74717 2.66386 -8.63122 179.088 4.17493 -77.6645 -16.98 -0.410517 51.0038 -74.3817 -6.36111e-015 -0 -41.0361 -43.9194 -31.9715 -178.231 7.7232 77.0602 48.4355 54.0257 -92.7013 -126.465 3.18055e-015 1.19271e-015 -87.2562 8.41142 71.8495 -1.67883 -7.9672 -173.998 -41.5684 4.77083e-015 -2.78299e-015 0.789903 10.7776 -19.7439 90 3.18055e-015 3.18055e-015 -44.5998 -6.76737 -174.31 -29.5319 0 -7.95139e-016 7.97471 -6.47302 12.6703 90 -1.59028e-015 -0 
78.4478 84.8986 18.5018 -108.565 -2.51478 164.712 -1.24068 -1.40144 1.15661 -2.45391 -2.82687 2.28381 -2.45391 -2.82687 2.2838 -8.30937e-012 -9.0191e-006 -5.27751e-005 -5.2827 2.87816 -9.57311 179.066 3.94689 -76.6694 -13.8422 -0.387199 53.0831 -73.3353 -9.54166e-015 -3.18055e-015 -43.7507 -43.2271 -35.3862 -178.32 7.50096 77.3411 54.1963 54.2414 -99.039 -126.036 -3.18055e-015 1.59028e-015 -87.8789 8.44426 77.3769 -8.5426 -7.88113 -172.162 -52.0046 0 -7.95139e-016 -12.9963 10.0232 -20.4371 90 -3.18055e-015 9.54166e-015 -40.6993 -6.55971 -172.33 -29.2024 -1.59028e-015 -7.95139e-016 10.8109 -5.16835 10.4079 90 -2.38542e-015 -1.59028e-015 
83.1775 85.8846 18.5864 -109.651 -3.97816 164.173 -1.35519 -1.0994 1.08232 -2.69012 -2.22344 2.13911 -2.69012 -2.22344 2.1391 -8.30701e-012 -9.0191e-006 -5.27751e-005 -5.34375 2.91105 -10.5179 178.963 4.0658 -75.6803 -11.8626 0.240898 55.0173 -71.966 0 1.59028e-015 -46.046 -43.1472 -38.3396 -178.326 7.50677 77.3886 59.9957 53.1625 -104.418 -125.406 0 -1.11319e-014 -88.6128 9.34144 85.5922 -16.9771 -8.25315 -172.545 -62.497 7.95139e-016 -7.95139e-016 -12.2445 6.68538 -13.3959 90 -1.59028e-015 -1.59028e-015 -36.5898 -7.55657 -172.122 -27.1045 -7.95139e-016 -1.59028e-015 13.6612 -5.18417 10.422 90 0 -0 
88.0745 86.9342 18.4122 -110.203 -5.2762 165.306 -1.43741 -0.648232 0.639318 -2.86779 -1.3118 1.26248 -2.86779 -1.3118 1.26248 -8.30579e-012 -9.0191e-006 -5.27751e-005 -4.49614 3.29528 -11.4624 178.959 3.87099 -74.9402 -10.9849 2.22715 56.4121 -70.9343 3.18055e-015 1.59028e-015 -47.4377 -43.4557 -40.4493 -178.324 7.34315 77.1094 63.3221 51.4396 -106.62 -124.231 3.18055e-015 -1.59028e-015 -89.1526 11.5641 91.9138 -24.5103 -7.73791 -174.706 -68.5946 1.59028e-015 1.59028e-015 -8.72638 4.94475 -9.85185 90 -1.59028e-015 3.18055e-015 -31.6158 -8.56139 -173.426 -24.0904 3.97569e-016 -0 16.509 -6.21542 12.5018 90 0 -1.59028e-015 
93.1865 87.8034 18.1047 -110.131 -6.69908 167.192 -1.43994 -0.162615 0.0443586 -2.87977 -0.32583 0.084805 -2.87977 -0.325829 0.0847957 -8.30887e-012 -9.0191e-006 -5.27751e-005 -2.59994 3.79234 -12.1946 179.048 3.41511 -74.4093 -10.9054 5.61577 57.1198 -70.7913 0 -3.18055e-015 -47.3821 -44.5623 -41.0014 -178.281 7.15144 76.4505 62.5343 50.0016 -104.416 -122.877 -6.36111e-015 -3.18055e-015 -89.4859 14.1339 95.0482 -30.9201 -6.04512 -177.015 -71.1761 -3.97569e-016 -0 -5.04907 5.27039 -10.5013 90 -6.36111e-015 1.59028e-015 -25.5622 -7.80731 -174.793 -19.7439 1.19271e-015 2.38542e-015 17.805 -6.02963 12.1012 90 1.59028e-015 1.59028e-015 
98.3905 88.2254 17.8258 -109.993 -8.19651 169.061 -1.44254 0.321437 -0.585376 -2.88179 0.657954 -1.16231 -2.88179 0.657955 -1.16232 -8.30788e-012 -9.0191e-006 -5.27751e-005 -0.259127 4.17277 -12.627 179.214 2.80145 -74.32 -11.5044 10.1733 57.1758 -71.6982 0 -7.95139e-016 -46.5461 -45.7273 -40.4719 -178.228 6.89632 75.5561 59.6135 48.6763 -99.5918 -122.457 -6.36111e-015 -4.77083e-015 -90.1043 16.2541 98.5518 -36.9734 -3.06323 -178.453 -71.5605 1.39149e-015 -0 -0.59544 6.52329 -13.0565 90 3.18055e-015 7.95139e-016 -19.6516 -7.80088 -176.192 -15.8318 -1.19271e-015 7.95139e-016 19.0155 -5.88942 11.7921 90 1.59028e-015 -0 
103.506 88.1331 17.423 -110.17 -9.52802 170.751 -1.39948 0.814965 -1.18371 -2.78227 1.65889 -2.34734 -2.78227 1.65889 -2.34735 -8.30788e-012 -9.0191e-006 -5.27751e-005 1.45253 4.28781 -12.9057 179.395 2.15648 -74.3186 -11.9795 14.7095 56.4786 -73.6991 -2.38542e-015 -1.59028e-015 -44.6871 -47.7562 -38.6121 -178.232 6.64829 75.0699 58.2775 46.5595 -96.4108 -122.713 0 -0 -91.0882 17.8099 102.964 -42.9169 0.370718 -179.59 -70.0376 1.59028e-015 4.77083e-015 3.82665 7.60399 -15.3107 90 3.18055e-015 2.5842e-015 -15.1446 -7.67028 -177.55 -13.7685 2.38542e-015 -7.95139e-016 20.3252 -5.43366 10.8414 90 -7.95139e-016 -3.18055e-015 
108.671 87.5852 16.8042 -110.239 -10.5659 172.189 -1.17329 1.28231 -1.70471 -2.30879 2.59916 -3.38392 -2.30879 2.59916 -3.38393 -8.30669e-012 -9.0191e-006 -5.27751e-005 2.06999 4.44317 -13.2267 179.606 1.39467 -74.2365 -11.4528 18.5238 55.1098 -76.9478 -7.95139e-016 1.98785e-016 -42.0741 -49.6555 -35.7245 -178.285 6.48614 75.1554 58.2739 44.1924 -95.2095 -122.774 3.18055e-015 1.59028e-015 -92.3248 20.7483 107.408 -48.0192 4.03391 179.786 -66.5108 3.18055e-015 -0 7.13542 8.57422 -17.3591 90 9.54166e-015 2.78299e-015 -11.2596 -7.22305 -178.613 -13.0658 7.95139e-016 -7.95139e-016 21.5432 -4.55976 9.04439 90 7.95139e-016 -0 
113.851 86.6578 16.0784 -110.42 -11.6829 173.015 -0.855953 1.60935 -2.10081 -1.65328 3.2493 -4.17967 -1.65328 3.2493 -4.17968 -8.30669e-012 -9.0191e-006 -5.27751e-005 1.74987 4.58858 -13.3473 179.858 0.504947 -74.2789 -10.0108 21.6593 53.6525 -80.9243 3.97569e-016 2.98177e-016 -41.3727 -50.627 -34.851 -178.4 6.22178 75.5509 58.7062 42.0754 -94.4725 -122.667 3.18055e-015 6.36111e-015 -94.2797 22.9634 113.546 -52.2089 6.82615 179.415 -60.7842 3.18055e-015 4.77083e-015 9.73866 9.56652 -19.4657 90 -3.18055e-015 1.59028e-015 -7.6546 -6.67907 -179.044 -12.9287 0 -1.59028e-015 22.279 -3.28982 6.46208 90 -3.97569e-016 -3.18055e-015 
